<svg xmlns="http://www.w3.org/2000/svg" xmlns:xlink="http://www.w3.org/1999/xlink"><symbol id="close-button" viewBox="0 0 357 357">
<g>
	<g id="close">
		<polygon points="357,35.7 321.3,0 178.5,142.8 35.7,0 0,35.7 142.8,178.5 0,321.3 35.7,357 178.5,214.2 321.3,357 357,321.3 
			214.2,178.5 		"/>
	</g>
</g>
</symbol><symbol id="credit-card" viewBox="1 -15 511.99939 511"><path d="m498.839844 141.484375-127.878906-127.875c-17.511719-17.480469-45.875-17.480469-63.386719 0l-114.910157 114.871094h-149.496093c-23.832031.023437-43.1445315 19.335937-43.167969 43.167969v203.792968c.0234375 23.832032 19.335938 43.148438 43.167969 43.167969h77.09375l50.6875 50.679687c8.378906 8.4375 19.789062 13.167969 31.683593 13.132813 11.894532.035156 23.304688-4.691406 31.691407-13.121094l50.6875-50.6875h183.816406c23.832031-.023437 43.148437-19.339843 43.171875-43.171875v-203.792968h-.179688c-.316406-11.34375-4.957031-22.136719-12.980468-30.164063zm-179.199219-115.816406c10.847656-10.824219 28.40625-10.824219 39.253906 0l10.980469 10.992187-303.707031 303.71875-11.035157-11.027344c-10.835937-10.839843-10.835937-28.410156 0-39.253906zm-302.574219 145.980469c.015625-14.410157 11.691406-26.089844 26.101563-26.101563h132.421875l-34.132813 34.132813h-124.390625zm0 25.097656h107.308594l-34.136719 34.132812h-73.171875zm26.101563 204.796875c-14.410157-.011719-26.085938-11.691407-26.101563-26.101563v-127.496094h56.089844l-30.089844 30.070313c-17.507812 17.503906-17.511718 45.886719-.007812 63.394531.003906.003906.003906.003906.007812.007813l60.128906 60.128906h-60.027343zm35.066406-49.097657 303.71875-303.71875 26.332031 26.332032-303.71875 303.71875zm144.023437 104.789063c-10.84375 10.828125-28.40625 10.828125-39.253906 0l-66.378906-66.382813 303.726562-303.726562 66.421876 66.425781c10.839843 10.832031 10.84375 28.402344.011718 39.242188-.003906.003906-.007812.007812-.011718.007812zm170.273438-123.957031c9.425781 0 17.066406 7.640625 17.066406 17.066406s-7.640625 17.066406-17.066406 17.066406c-9.421875 0-17.066406-7.640625-17.066406-17.066406s7.644531-17.066406 17.066406-17.066406zm102.402344 42.164062c-.015625 14.410156-11.691406 26.089844-26.105469 26.101563h-166.746094l56.863281-56.847657c-3.242187 18.464844 9.09375 36.0625 27.558594 39.308594 11.800782 2.074219 23.824219-2.226562 31.628906-11.320312 12.339844 14.253906 33.894532 15.804687 48.148438 3.46875 14.25-12.339844 15.804688-33.894532 3.464844-48.148438-12.335938-14.253906-33.894532-15.804687-48.144532-3.464844-1.238281 1.070313-2.398437 2.226563-3.46875 3.464844-7.597656-9.144531-19.5625-13.441406-31.238281-11.21875l68.863281-68.839844h39.175782zm-68.265625-25.097656c0-9.425781 7.640625-17.066406 17.066406-17.066406s17.066406 7.640625 17.066406 17.066406-7.640625 17.066406-17.066406 17.066406-17.066406-7.640625-17.066406-17.066406zm68.265625-119.464844h-22.101563l22.101563-22.101562zm0 0"/><path d="m251.570312 342.382812c-11.699218-11.671874-30.640624-11.671874-42.339843 0l-20.925781 20.925782c-11.671876 11.699218-11.671876 30.640625 0 42.339844l3.859374 3.859374c11.699219 11.671876 30.640626 11.671876 42.339844 0l20.925782-20.925781c11.671874-11.699219 11.671874-30.640625 0-42.339843zm-8.207031 34.132813-20.925781 20.925781c-5.035156 5.007813-13.171875 5.007813-18.210938 0l-3.855468-3.859375c-5.019532-5.03125-5.019532-13.175781 0-18.207031l20.921875-20.925781c5.035156-5.019531 13.179687-5.019531 18.210937 0l3.859375 3.859375c5.902344 3.980468 8.535157 10.40625 4.554688 16.308594-.929688 1.375-2.113281 2.558593-4.554688 1.898437zm0 0"/></symbol><symbol id="gear_wheel_18" viewBox="0 0 18 18">
<path d="M16.4169 9C16.4169 8.90681 16.4149 8.81406 16.4111 8.72176C16.3935 8.29657 16.6005 7.8843 16.9793 7.69039L17.3193 7.51635C17.7211 7.31067 17.941 6.85933 17.809 6.42767C17.7642 6.28115 17.7157 6.1362 17.6636 5.99288C17.5122 5.57663 17.0787 5.34602 16.6403 5.40948L16.224 5.46974C15.8111 5.52952 15.4098 5.32264 15.1748 4.97785C15.0656 4.81751 14.9499 4.6617 14.8282 4.51071C14.5591 4.17675 14.482 3.71728 14.6761 3.33477L14.8327 3.02595C15.0381 2.62107 14.9482 2.12392 14.5845 1.85213C14.4559 1.75599 14.3246 1.66313 14.1907 1.57361C13.8249 1.32895 13.3422 1.39463 13.0245 1.69923L12.7276 1.98387C12.4279 2.27127 11.9838 2.33732 11.5936 2.19518C11.3992 2.12436 11.2009 2.06134 10.9992 2.00641C10.5919 1.89552 10.2648 1.57583 10.1929 1.15991L10.1305 0.798816C10.0544 0.358199 9.69508 0.0156808 9.2481 0.00341882C9.16569 0.00115791 9.08299 0 9 0C8.91714 0 8.83454 0.00115663 8.75221 0.00341508C8.30524 0.015677 7.94589 0.358199 7.86978 0.798816L7.80746 1.15958C7.73559 1.57566 7.40819 1.89542 7.00077 2.00633C6.799 2.06126 6.60067 2.12429 6.40623 2.1951C6.01616 2.33718 5.57221 2.27102 5.27259 1.98366L4.97597 1.69917C4.65824 1.39444 4.17533 1.32877 3.80937 1.57348C3.67548 1.66301 3.54412 1.75587 3.41545 1.85202C3.05194 2.12367 2.96213 2.6206 3.16735 3.02535L3.32422 3.33475C3.51809 3.71712 3.44113 4.17638 3.17205 4.51014C3.05024 4.66122 2.9344 4.81714 2.82497 4.9776C2.58985 5.32232 2.18861 5.5292 1.77565 5.46941L1.35956 5.40916C0.921262 5.3457 0.487786 5.57622 0.336416 5.99242C0.284274 6.13578 0.23572 6.2808 0.19091 6.42741C0.0589877 6.85905 0.278872 7.31033 0.680632 7.516L1.02077 7.69012C1.39952 7.88401 1.60657 8.29623 1.58915 8.72137C1.58536 8.81368 1.58341 8.90646 1.58341 8.99969C1.58341 9.09309 1.58537 9.18604 1.58916 9.27852C1.60658 9.70372 1.39945 10.116 1.02062 10.3098L0.680858 10.4837C0.278985 10.6893 0.0590468 11.1407 0.19103 11.5724C0.235824 11.719 0.284358 11.8639 0.336476 12.0072C0.487842 12.4234 0.921283 12.654 1.3596 12.5906L1.77606 12.5304C2.18882 12.4707 2.58986 12.6774 2.82496 13.0219C2.93452 13.1824 3.05046 13.3384 3.17236 13.4895C3.44137 13.8231 3.51825 14.2821 3.32456 14.6643L3.16766 14.9739C2.96247 15.3789 3.05253 15.876 3.41615 16.1478C3.54468 16.2438 3.67589 16.3366 3.80962 16.4261C4.17542 16.6708 4.65812 16.6051 4.97574 16.3004L5.27236 16.0159C5.57209 15.7285 6.01625 15.6624 6.4065 15.8044C6.60096 15.8752 6.79931 15.9382 7.0011 15.9931C7.40838 16.1039 7.73556 16.4236 7.80741 16.8395L7.8699 17.2013C7.94596 17.6416 8.30482 17.984 8.75144 17.9965C8.83402 17.9988 8.91688 18 9 18C9.08325 18 9.16621 17.9988 9.24888 17.9965C9.6955 17.984 10.0544 17.6416 10.1304 17.2013L10.1929 16.8395C10.2648 16.4236 10.5919 16.1039 10.9992 15.993C11.2009 15.9382 11.3992 15.8752 11.5936 15.8044C11.9838 15.6624 12.4279 15.7284 12.7276 16.0158L13.0247 16.3007C13.3423 16.6052 13.8248 16.6709 14.1905 16.4264C14.3244 16.3369 14.4557 16.244 14.5843 16.1479C14.948 15.8761 15.038 15.3788 14.8326 14.9738L14.6759 14.6647C14.4819 14.2823 14.5589 13.823 14.8281 13.4893C14.9497 13.3384 15.0654 13.1827 15.1747 13.0224C15.4099 12.6774 15.8113 12.4702 16.2245 12.5299L16.6407 12.5901C17.0789 12.6534 17.5122 12.423 17.6636 12.007C17.7157 11.8638 17.7642 11.7189 17.809 11.5724C17.941 11.1407 17.721 10.6893 17.3191 10.4837L16.9794 10.3098C16.6005 10.116 16.3935 9.70373 16.4111 9.27854C16.4149 9.18617 16.4169 9.09333 16.4169 9ZM9.00064 12.9066C6.79727 12.9066 5.01112 11.1576 5.01112 9C5.01112 6.84241 6.79727 5.09369 9.00064 5.09369C11.2043 5.09369 12.9901 6.84242 12.9901 9.00031C12.9901 11.1582 11.204 12.9066 9.00064 12.9066Z"/>
</symbol>
<symbol id="whatsapp" viewBox="0 0 28 28">
	<path d="M.057 24l1.687-6.163c-1.041-1.804-1.588-3.849-1.587-5.946.003-6.556 5.338-11.891 11.893-11.891 3.181.001 6.167 1.24 8.413 3.488 2.245 2.248 3.481 5.236 3.48 8.414-.003 6.557-5.338 11.892-11.893 11.892-1.99-.001-3.951-.5-5.688-1.448l-6.305 1.654zm6.597-3.807c1.676.995 3.276 1.591 5.392 1.592 5.448 0 9.886-4.434 9.889-9.885.002-5.462-4.415-9.89-9.881-9.892-5.452 0-9.887 4.434-9.889 9.884-.001 2.225.651 3.891 1.746 5.634l-.999 3.648 3.742-.981zm11.387-5.464c-.074-.124-.272-.198-.57-.347-.297-.149-1.758-.868-2.031-.967-.272-.099-.47-.149-.669.149-.198.297-.768.967-.941 1.165-.173.198-.347.223-.644.074-.297-.149-1.255-.462-2.39-1.475-.883-.788-1.48-1.761-1.653-2.059-.173-.297-.018-.458.13-.606.134-.133.297-.347.446-.521.151-.172.2-.296.3-.495.099-.198.05-.372-.025-.521-.075-.148-.669-1.611-.916-2.206-.242-.579-.487-.501-.669-.51l-.57-.01c-.198 0-.52.074-.792.372s-1.04 1.016-1.04 2.479 1.065 2.876 1.213 3.074c.149.198 2.095 3.2 5.076 4.487.709.306 1.263.489 1.694.626.712.226 1.36.194 1.872.118.571-.085 1.758-.719 2.006-1.413.248-.695.248-1.29.173-1.414z"/>
</symbol><symbol id="gear_wheel_28" viewBox="0 0 28 28">
<path d="M25.5374 14C25.5374 13.7218 25.5261 13.4461 25.5049 13.1731C25.472 12.7488 25.682 12.3367 26.0608 12.1427L27.3193 11.4985C27.7211 11.2928 27.939 10.8424 27.8207 10.4068C27.6842 9.9044 27.5195 9.41324 27.329 8.93454C27.1653 8.52299 26.7339 8.29184 26.2955 8.3553L24.8559 8.56371C24.4429 8.62349 24.0399 8.41817 23.8169 8.06551C23.5156 7.58905 23.1789 7.13642 22.8106 6.71068C22.53 6.38631 22.4551 5.92548 22.6491 5.54297L23.2667 4.32539C23.472 3.92051 23.3811 3.42511 23.0259 3.14242C22.6123 2.81328 22.1792 2.50682 21.7291 2.22391C21.3565 1.98969 20.8751 2.05377 20.5574 2.35837L19.5219 3.35125C19.2222 3.63865 18.7775 3.70696 18.3923 3.55188C17.8576 3.33662 17.3026 3.16008 16.731 3.02467C16.3203 2.92737 15.994 2.60542 15.9222 2.1895L15.6872 0.828895C15.611 0.388278 15.2518 0.0480904 14.8054 0.0229262C14.5389 0.00790375 14.2704 0 14 0C13.7299 0 13.4615 0.00790262 13.1951 0.022923C12.7487 0.0480911 12.3895 0.388278 12.3133 0.828894L12.0784 2.18917C12.0065 2.60525 11.68 2.92727 11.2691 3.02455C10.6975 3.15987 10.1423 3.3365 9.60754 3.55167C9.2224 3.70664 8.7779 3.63822 8.47829 3.35086L7.44322 2.35814C7.12549 2.05341 6.64389 1.98935 6.27116 2.22363C5.82108 2.50654 5.38786 2.81298 4.97424 3.14211C4.61915 3.42468 4.52835 3.91987 4.73357 4.32462L5.35119 5.54277C5.54506 5.92515 5.47024 6.38577 5.18973 6.70998C4.82131 7.13579 4.48422 7.58851 4.18272 8.06506C3.95962 8.41768 3.55658 8.623 3.14362 8.56321L1.70433 8.35482C1.26604 8.29136 0.834683 8.52241 0.670921 8.93389C0.480423 9.41254 0.315681 9.90377 0.179208 10.4063C0.0609282 10.8419 0.278872 11.2923 0.680632 11.498L1.93928 12.1423C2.31803 12.3362 2.52803 12.7483 2.49531 13.1725C2.47426 13.4455 2.46309 13.7212 2.46309 13.9995C2.46309 14.2781 2.47426 14.5541 2.49533 14.8274C2.52803 15.2517 2.31796 15.6638 1.93913 15.8577L0.680858 16.5015C0.278985 16.7072 0.0609823 17.1577 0.179329 17.5934C0.315797 18.0957 0.480526 18.5869 0.671002 19.0656C0.834739 19.4771 1.26606 19.7082 1.70437 19.6448L3.14403 19.4366C3.55679 19.3769 3.95962 19.5821 4.18273 19.9344C4.48448 20.411 4.82168 20.8635 5.1901 21.2893C5.47048 21.6133 5.54522 22.0737 5.35153 22.4559L4.73406 23.6745C4.52886 24.0795 4.61993 24.5748 4.97517 24.8574C5.38868 25.1864 5.82154 25.4929 6.27138 25.7757C6.64397 26.0099 7.12537 25.9457 7.443 25.6411L8.47806 24.6484C8.77779 24.3609 9.22249 24.2926 9.60777 24.4476C10.1426 24.6628 10.6978 24.8391 11.2694 24.9744C11.6802 25.0717 12.0065 25.3936 12.0783 25.8095L12.3135 27.1709C12.3895 27.6111 12.7483 27.9512 13.1943 27.9767C13.461 27.992 13.7296 28 14 28C14.2707 28 14.5394 27.992 14.8062 27.9767C15.2522 27.9512 15.611 27.6111 15.687 27.1709L15.9222 25.8095C15.994 25.3936 16.3203 25.0717 16.7311 24.9744C17.3026 24.8391 17.8576 24.6627 18.3923 24.4476C18.7776 24.2926 19.2222 24.3609 19.5219 24.6483L20.5576 25.6414C20.8752 25.9459 21.3564 26.01 21.729 25.7759C22.179 25.4931 22.612 25.1866 23.0256 24.8576C23.381 24.5749 23.472 24.0794 23.2666 23.6744L22.6489 22.4563C22.455 22.0739 22.5298 21.6132 22.8104 21.2891C23.1787 20.8635 23.5156 20.4112 23.8169 19.9346C24.04 19.5817 24.4432 19.376 24.8564 19.4358L26.296 19.6439C26.7341 19.7073 27.1653 19.4763 27.3291 19.065C27.5195 18.5866 27.6842 18.0956 27.8207 17.5934C27.939 17.1577 27.721 16.7072 27.3191 16.5015L26.0609 15.8577C25.682 15.6638 25.472 15.2517 25.5049 14.8274C25.5261 14.5543 25.5374 14.2785 25.5374 14ZM14.001 20.077C10.5735 20.077 7.79508 17.3562 7.79508 14C7.79508 10.6438 10.5735 7.92352 14.001 7.92352C17.4289 7.92352 20.2069 10.6438 20.2069 14.0005C20.2069 17.3572 17.4284 20.077 14.001 20.077Z"/>
</symbol><symbol id="icon_advantages_01" viewBox="0 0 60 60">
<path d="M15 31.4516L14.4697 30.9213L13.9393 31.4516L14.4697 31.9819L15 31.4516ZM28.5484 45L28.0181 45.5303L28.5484 46.0607L29.0787 45.5303L28.5484 45ZM45 28.5484L45.5303 29.0787L45.75 28.859V28.5484H45ZM45 20.8065H45.75V20.4958L45.5303 20.2761L45 20.8065ZM39.1935 15L39.7239 14.4697L39.5042 14.25H39.1935V15ZM31.4516 15V14.25H31.141L30.9213 14.4697L31.4516 15ZM58.25 30C58.25 45.602 45.602 58.25 30 58.25V59.75C46.4305 59.75 59.75 46.4305 59.75 30H58.25ZM30 58.25C14.398 58.25 1.75 45.602 1.75 30H0.25C0.25 46.4305 13.5695 59.75 30 59.75V58.25ZM1.75 30C1.75 14.398 14.398 1.75 30 1.75V0.25C13.5695 0.25 0.25 13.5695 0.25 30H1.75ZM30 1.75C45.602 1.75 58.25 14.398 58.25 30H59.75C59.75 13.5695 46.4305 0.25 30 0.25V1.75ZM14.4697 31.9819L28.0181 45.5303L29.0787 44.4697L15.5303 30.9213L14.4697 31.9819ZM29.0787 45.5303L45.5303 29.0787L44.4697 28.0181L28.0181 44.4697L29.0787 45.5303ZM45.75 28.5484V20.8065H44.25V28.5484H45.75ZM45.5303 20.2761L39.7239 14.4697L38.6632 15.5303L44.4697 21.3368L45.5303 20.2761ZM39.1935 14.25H31.4516V15.75H39.1935V14.25ZM30.9213 14.4697L14.4697 30.9213L15.5303 31.9819L31.9819 15.5303L30.9213 14.4697ZM42.3477 30.7044C43.2616 33.6746 42.7729 35.7689 41.7566 37.1068C40.7246 38.4653 39.0562 39.1694 37.379 39.1694C35.7008 39.1694 34.1124 38.4666 33.2051 37.1376C32.3099 35.8264 31.9696 33.7425 33.1194 30.7531L31.7193 30.2146C30.4498 33.5155 30.7143 36.1494 31.9663 37.9834C33.2061 39.7995 35.3073 40.6694 37.379 40.6694C39.4518 40.6694 41.5939 39.8008 42.9511 38.0142C44.3238 36.207 44.803 33.5835 43.7814 30.2633L42.3477 30.7044ZM17.8568 28.5948L31.4052 42.1432L32.4658 41.0826L18.9174 27.5342L17.8568 28.5948ZM39.4113 21.7742C39.4113 22.4289 38.8805 22.9597 38.2258 22.9597V24.4597C39.709 24.4597 40.9113 23.2573 40.9113 21.7742H39.4113ZM38.2258 22.9597C37.5711 22.9597 37.0403 22.4289 37.0403 21.7742H35.5403C35.5403 23.2573 36.7427 24.4597 38.2258 24.4597V22.9597ZM37.0403 21.7742C37.0403 21.1195 37.5711 20.5887 38.2258 20.5887V19.0887C36.7427 19.0887 35.5403 20.291 35.5403 21.7742H37.0403ZM38.2258 20.5887C38.8805 20.5887 39.4113 21.1195 39.4113 21.7742H40.9113C40.9113 20.291 39.709 19.0887 38.2258 19.0887V20.5887ZM15.416 22.8821C17.2754 21.6425 20.5656 20.0659 24.3213 19.4165C28.0707 18.7681 32.2168 19.0532 35.8816 21.4353L36.6991 20.1776C32.6219 17.5275 28.0583 17.248 24.0658 17.9384C20.0796 18.6277 16.5956 20.293 14.584 21.634L15.416 22.8821Z"/>
</symbol><symbol id="icon_advantages_02" viewBox="0 0 60 60">
<path d="M34 17H34.75V16.25H34V17ZM34 28H33.25V28.75H34V28ZM41 19L41.6708 18.6646L41.4635 18.25H41V19ZM49 32H49.75V31.7182L49.5644 31.5061L49 32ZM49 40V40.75H49.75V40H49ZM58.25 30C58.25 45.602 45.602 58.25 30 58.25V59.75C46.4305 59.75 59.75 46.4305 59.75 30H58.25ZM30 58.25C14.398 58.25 1.75 45.602 1.75 30H0.25C0.25 46.4305 13.5695 59.75 30 59.75V58.25ZM1.75 30C1.75 14.398 14.398 1.75 30 1.75V0.25C13.5695 0.25 0.25 13.5695 0.25 30H1.75ZM30 1.75C45.602 1.75 58.25 14.398 58.25 30H59.75C59.75 13.5695 46.4305 0.25 30 0.25V1.75ZM13 23.75H25V22.25H13V23.75ZM11 28.75H23V27.25H11V28.75ZM13 33.75H20V32.25H13V33.75ZM21 39.25H18V40.75H21V39.25ZM16 17.75H34V16.25H16V17.75ZM34 28.75H45.5V27.25H34V28.75ZM46.1708 27.6646L41.6708 18.6646L40.3292 19.3354L44.8292 28.3354L46.1708 27.6646ZM33.25 17V19H34.75V17H33.25ZM33.25 19V28H34.75V19H33.25ZM41 18.25H34V19.75H41V18.25ZM44.9356 28.4939L48.4356 32.4939L49.5644 31.5061L46.0644 27.5061L44.9356 28.4939ZM48.25 32V40H49.75V32H48.25ZM49 39.25H44V40.75H49V39.25ZM37 39.25H28V40.75H37V39.25ZM27.25 39.5C27.25 41.0188 26.0188 42.25 24.5 42.25V43.75C26.8472 43.75 28.75 41.8472 28.75 39.5H27.25ZM24.5 42.25C22.9812 42.25 21.75 41.0188 21.75 39.5H20.25C20.25 41.8472 22.1528 43.75 24.5 43.75V42.25ZM21.75 39.5C21.75 37.9812 22.9812 36.75 24.5 36.75V35.25C22.1528 35.25 20.25 37.1528 20.25 39.5H21.75ZM24.5 36.75C26.0188 36.75 27.25 37.9812 27.25 39.5H28.75C28.75 37.1528 26.8472 35.25 24.5 35.25V36.75ZM43.25 39.5C43.25 41.0188 42.0188 42.25 40.5 42.25V43.75C42.8472 43.75 44.75 41.8472 44.75 39.5H43.25ZM40.5 42.25C38.9812 42.25 37.75 41.0188 37.75 39.5H36.25C36.25 41.8472 38.1528 43.75 40.5 43.75V42.25ZM37.75 39.5C37.75 37.9812 38.9812 36.75 40.5 36.75V35.25C38.1528 35.25 36.25 37.1528 36.25 39.5H37.75ZM40.5 36.75C42.0188 36.75 43.25 37.9812 43.25 39.5H44.75C44.75 37.1528 42.8472 35.25 40.5 35.25V36.75Z"/>
</symbol><symbol id="icon_advantages_03" viewBox="0 0 60 60">
<path d="M58.25 30C58.25 45.602 45.602 58.25 30 58.25V59.75C46.4305 59.75 59.75 46.4305 59.75 30H58.25ZM30 58.25C14.398 58.25 1.75 45.602 1.75 30H0.25C0.25 46.4305 13.5695 59.75 30 59.75V58.25ZM1.75 30C1.75 14.398 14.398 1.75 30 1.75V0.25C13.5695 0.25 0.25 13.5695 0.25 30H1.75ZM30 1.75C45.602 1.75 58.25 14.398 58.25 30H59.75C59.75 13.5695 46.4305 0.25 30 0.25V1.75ZM15 18.75H45V17.25H15V18.75ZM47.25 21V39H48.75V21H47.25ZM45 41.25H15V42.75H45V41.25ZM12.75 39V21H11.25V39H12.75ZM15 41.25C13.7574 41.25 12.75 40.2426 12.75 39H11.25C11.25 41.0711 12.9289 42.75 15 42.75V41.25ZM47.25 39C47.25 40.2426 46.2426 41.25 45 41.25V42.75C47.0711 42.75 48.75 41.0711 48.75 39H47.25ZM45 18.75C46.2426 18.75 47.25 19.7574 47.25 21H48.75C48.75 18.9289 47.0711 17.25 45 17.25V18.75ZM15 17.25C12.9289 17.25 11.25 18.9289 11.25 21H12.75C12.75 19.7574 13.7574 18.75 15 18.75V17.25ZM12 32.75H48V31.25H12V32.75ZM16 28.75H28V27.25H16V28.75ZM12 36.75H48V35.25H12V36.75ZM39.25 25.5C39.25 26.4665 38.4665 27.25 37.5 27.25V28.75C39.2949 28.75 40.75 27.2949 40.75 25.5H39.25ZM37.5 27.25C36.5335 27.25 35.75 26.4665 35.75 25.5H34.25C34.25 27.2949 35.7051 28.75 37.5 28.75V27.25ZM35.75 25.5C35.75 24.5335 36.5335 23.75 37.5 23.75V22.25C35.7051 22.25 34.25 23.7051 34.25 25.5H35.75ZM37.5 23.75C38.4665 23.75 39.25 24.5335 39.25 25.5H40.75C40.75 23.7051 39.2949 22.25 37.5 22.25V23.75ZM42.25 25.5C42.25 26.4665 41.4665 27.25 40.5 27.25V28.75C42.2949 28.75 43.75 27.2949 43.75 25.5H42.25ZM40.5 27.25C39.5335 27.25 38.75 26.4665 38.75 25.5H37.25C37.25 27.2949 38.7051 28.75 40.5 28.75V27.25ZM38.75 25.5C38.75 24.5335 39.5335 23.75 40.5 23.75V22.25C38.7051 22.25 37.25 23.7051 37.25 25.5H38.75ZM40.5 23.75C41.4665 23.75 42.25 24.5335 42.25 25.5H43.75C43.75 23.7051 42.2949 22.25 40.5 22.25V23.75Z"/>
</symbol><symbol id="icon_advantages_04" viewBox="0 0 60 60">
<path d="M19 45L18.2885 44.7628C18.1858 45.071 18.2931 45.4103 18.5544 45.6033C18.8157 45.7963 19.1716 45.7991 19.4359 45.6103L19 45ZM30 45L29.4143 45.4685C29.5567 45.6464 29.7722 45.75 30 45.75C30.2278 45.75 30.4433 45.6464 30.5857 45.4685L30 45ZM41 45L40.5641 45.6103C40.8284 45.7991 41.1843 45.7963 41.4456 45.6033C41.7069 45.4103 41.8142 45.071 41.7115 44.7628L41 45ZM30.7835 37.9229L31.3935 38.3592L30.7835 37.9229ZM29.2165 37.9229L29.8264 37.4865L29.2165 37.9229ZM58.25 30C58.25 45.602 45.602 58.25 30 58.25V59.75C46.4305 59.75 59.75 46.4305 59.75 30H58.25ZM30 58.25C14.398 58.25 1.75 45.602 1.75 30H0.25C0.25 46.4305 13.5695 59.75 30 59.75V58.25ZM1.75 30C1.75 14.398 14.398 1.75 30 1.75V0.25C13.5695 0.25 0.25 13.5695 0.25 30H1.75ZM30 1.75C45.602 1.75 58.25 14.398 58.25 30H59.75C59.75 13.5695 46.4305 0.25 30 0.25V1.75ZM25.55 32.4C23.3885 34.0212 21.5731 37.1769 20.3229 39.8025C19.6876 41.1366 19.1802 42.3736 18.8316 43.2768C18.6571 43.7288 18.522 44.0982 18.4303 44.3555C18.3844 44.4842 18.3493 44.5849 18.3255 44.654C18.3136 44.6886 18.3046 44.7152 18.2984 44.7335C18.2953 44.7426 18.2929 44.7497 18.2912 44.7546C18.2904 44.7571 18.2898 44.759 18.2893 44.7603C18.2891 44.761 18.2889 44.7616 18.2888 44.762C18.2887 44.7622 18.2886 44.7624 18.2886 44.7625C18.2885 44.7627 18.2885 44.7628 19 45C19.7115 45.2372 19.7115 45.2372 19.7115 45.2373C19.7115 45.2372 19.7115 45.2372 19.7115 45.2372C19.7116 45.237 19.7116 45.2368 19.7118 45.2364C19.7121 45.2356 19.7125 45.2342 19.7131 45.2323C19.7144 45.2286 19.7164 45.2227 19.7191 45.2147C19.7245 45.1987 19.7328 45.1745 19.7438 45.1424C19.7659 45.0782 19.7992 44.9826 19.8431 44.8593C19.9311 44.6127 20.0616 44.2556 20.2309 43.8169C20.5698 42.9389 21.0624 41.7384 21.6771 40.4475C22.9269 37.8231 24.6115 34.9788 26.45 33.6L25.55 32.4ZM19.4359 45.6103C22.7607 43.2355 25.2629 43.2949 26.8878 43.8365C27.7216 44.1145 28.3628 44.5323 28.7948 44.8807C29.0102 45.0544 29.1713 45.209 29.2759 45.3169C29.3281 45.3708 29.366 45.4127 29.3892 45.4392C29.4008 45.4525 29.4087 45.4618 29.4129 45.4669C29.415 45.4694 29.4162 45.4708 29.4164 45.4711C29.4166 45.4713 29.4164 45.4711 29.4161 45.4707C29.4159 45.4705 29.4157 45.4702 29.4154 45.4698C29.4153 45.4697 29.415 45.4693 29.4149 45.4692C29.4146 45.4689 29.4143 45.4685 30 45C30.5857 44.5315 30.5853 44.5311 30.585 44.5307C30.5849 44.5305 30.5845 44.53 30.5842 44.5297C30.5837 44.529 30.5831 44.5283 30.5824 44.5275C30.5811 44.5258 30.5795 44.5239 30.5777 44.5217C30.574 44.5172 30.5694 44.5115 30.5637 44.5047C30.5524 44.4912 30.537 44.4731 30.5176 44.4509C30.4788 44.4066 30.4238 44.346 30.353 44.2729C30.2115 44.1269 30.0054 43.93 29.7364 43.7131C29.1997 43.2802 28.4034 42.7605 27.3622 42.4135C25.2371 41.7051 22.2393 41.7645 18.5641 44.3897L19.4359 45.6103ZM33.55 33.6C35.3885 34.9788 37.0731 37.8231 38.3229 40.4475C38.9376 41.7384 39.4302 42.9389 39.7691 43.8169C39.9384 44.2556 40.0689 44.6127 40.1569 44.8593C40.2008 44.9826 40.2341 45.0782 40.2562 45.1424C40.2672 45.1745 40.2755 45.1987 40.2809 45.2147C40.2836 45.2227 40.2856 45.2286 40.2869 45.2323C40.2875 45.2342 40.2879 45.2356 40.2882 45.2364C40.2884 45.2368 40.2884 45.237 40.2885 45.2372C40.2885 45.2372 40.2885 45.2372 40.2885 45.2373C40.2885 45.2372 40.2885 45.2372 41 45C41.7115 44.7628 41.7115 44.7627 41.7114 44.7625C41.7114 44.7624 41.7113 44.7622 41.7112 44.762C41.7111 44.7616 41.7109 44.761 41.7107 44.7603C41.7102 44.759 41.7096 44.7571 41.7088 44.7546C41.7071 44.7497 41.7047 44.7426 41.7016 44.7335C41.6954 44.7152 41.6864 44.6886 41.6745 44.654C41.6507 44.5849 41.6156 44.4842 41.5697 44.3555C41.478 44.0982 41.3429 43.7288 41.1684 43.2768C40.8198 42.3736 40.3124 41.1366 39.6771 39.8025C38.4269 37.1769 36.6115 34.0212 34.45 32.4L33.55 33.6ZM41.4359 44.3897C37.7607 41.7645 34.7629 41.7051 32.6378 42.4135C31.5966 42.7605 30.8003 43.2802 30.2636 43.7131C29.9946 43.93 29.7885 44.1269 29.647 44.2729C29.5762 44.346 29.5212 44.4066 29.4824 44.4509C29.463 44.4731 29.4476 44.4912 29.4363 44.5047C29.4306 44.5115 29.426 44.5172 29.4223 44.5217C29.4205 44.5239 29.4189 44.5258 29.4176 44.5275C29.4169 44.5283 29.4163 44.529 29.4158 44.5297C29.4155 44.53 29.4151 44.5305 29.415 44.5307C29.4147 44.5311 29.4143 44.5315 30 45C30.5857 45.4685 30.5854 45.4689 30.5851 45.4692C30.585 45.4693 30.5847 45.4697 30.5846 45.4698C30.5843 45.4702 30.5841 45.4705 30.5839 45.4707C30.5836 45.4711 30.5834 45.4713 30.5836 45.4711C30.5838 45.4708 30.585 45.4694 30.5871 45.4669C30.5913 45.4618 30.5992 45.4525 30.6108 45.4392C30.634 45.4127 30.6719 45.3708 30.7241 45.3169C30.8287 45.209 30.9898 45.0544 31.2052 44.8807C31.6372 44.5323 32.2784 44.1145 33.1122 43.8365C34.7371 43.2949 37.2393 43.2355 40.5641 45.6103L41.4359 44.3897ZM32.25 22C32.25 23.2426 31.2426 24.25 30 24.25V25.75C32.0711 25.75 33.75 24.0711 33.75 22H32.25ZM30 24.25C28.7574 24.25 27.75 23.2426 27.75 22H26.25C26.25 24.0711 27.9289 25.75 30 25.75V24.25ZM27.75 22C27.75 20.7574 28.7574 19.75 30 19.75V18.25C27.9289 18.25 26.25 19.9289 26.25 22H27.75ZM30 19.75C31.2426 19.75 32.25 20.7574 32.25 22H33.75C33.75 19.9289 32.0711 18.25 30 18.25V19.75ZM38.25 22C38.25 22.864 37.9215 24.0637 37.3314 25.4859C36.7493 26.8889 35.9448 28.4342 35.0632 29.9641C33.3008 33.0227 31.2629 35.9637 30.1736 37.4865L31.3935 38.3592C32.4944 36.8204 34.5647 33.8337 36.3629 30.713C37.2617 29.1533 38.1006 27.5462 38.7169 26.0607C39.3253 24.5944 39.75 23.1697 39.75 22H38.25ZM29.8264 37.4865C28.7371 35.9637 26.6992 33.0227 24.9368 29.9641C24.0552 28.4342 23.2507 26.8889 22.6686 25.4859C22.0785 24.0637 21.75 22.864 21.75 22H20.25C20.25 23.1697 20.6747 24.5944 21.2831 26.0607C21.8994 27.5462 22.7383 29.1533 23.6371 30.713C25.4353 33.8337 27.5056 36.8204 28.6065 38.3592L29.8264 37.4865ZM21.75 22C21.75 17.4437 25.4437 13.75 30 13.75V12.25C24.6152 12.25 20.25 16.6152 20.25 22H21.75ZM30 13.75C34.5563 13.75 38.25 17.4437 38.25 22H39.75C39.75 16.6152 35.3848 12.25 30 12.25V13.75ZM30.1736 37.4865C30.0843 37.6113 29.9157 37.6113 29.8264 37.4865L28.6065 38.3592C29.2941 39.3204 30.7059 39.3204 31.3935 38.3592L30.1736 37.4865Z"/>
</symbol><symbol id="icon_arrow_breadcrumbs" viewBox="0 0 7 12">
<path d="M1 1L6 6L1 11" stroke-width="1.5" stroke-linecap="round" stroke-linejoin="round"/>
</symbol><symbol id="icon_cancel" viewBox="0 0 12 12">
<path d="M1 1L6 6M11 11L6 6M6 6L11 1.00003M6 6L1 11" stroke-width="1.5" stroke-linecap="round"/>
</symbol><symbol id="icon_cart" viewBox="0 0 28 22">
<path d="M15.25 18C15.25 18.4142 15.5858 18.75 16 18.75C16.4142 18.75 16.75 18.4142 16.75 18H15.25ZM16.75 13C16.75 12.5858 16.4142 12.25 16 12.25C15.5858 12.25 15.25 12.5858 15.25 13H16.75ZM11.25 18C11.25 18.4142 11.5858 18.75 12 18.75C12.4142 18.75 12.75 18.4142 12.75 18H11.25ZM12.75 13C12.75 12.5858 12.4142 12.25 12 12.25C11.5858 12.25 11.25 12.5858 11.25 13H12.75ZM7.25 18C7.25 18.4142 7.58579 18.75 8 18.75C8.41421 18.75 8.75 18.4142 8.75 18H7.25ZM8.75 13C8.75 12.5858 8.41421 12.25 8 12.25C7.58579 12.25 7.25 12.5858 7.25 13H8.75ZM19.25 18C19.25 18.4142 19.5858 18.75 20 18.75C20.4142 18.75 20.75 18.4142 20.75 18H19.25ZM20.75 13C20.75 12.5858 20.4142 12.25 20 12.25C19.5858 12.25 19.25 12.5858 19.25 13H20.75ZM5 21L4.2621 21.1342C4.32694 21.4908 4.63754 21.75 5 21.75V21ZM23 21V21.75C23.3625 21.75 23.6731 21.4908 23.7379 21.1342L23 21ZM1 10H0.25C0.25 10.4142 0.585786 10.75 1 10.75L1 10ZM1 6V5.25C0.585786 5.25 0.25 5.58579 0.25 6H1ZM27 6H27.75C27.75 5.58579 27.4142 5.25 27 5.25V6ZM27 10V10.75C27.4142 10.75 27.75 10.4142 27.75 10H27ZM11.5303 1.53033C11.8232 1.23744 11.8232 0.762563 11.5303 0.46967C11.2374 0.176777 10.7626 0.176777 10.4697 0.46967L11.5303 1.53033ZM17.5303 0.46967C17.2374 0.176777 16.7626 0.176777 16.4697 0.46967C16.1768 0.762563 16.1768 1.23744 16.4697 1.53033L17.5303 0.46967ZM16.75 18V13H15.25V18H16.75ZM12.75 18V13H11.25V18H12.75ZM8.75 18V13H7.25V18H8.75ZM20.75 18V13H19.25V18H20.75ZM5.7379 20.8658L3.7379 9.86584L2.2621 10.1342L4.2621 21.1342L5.7379 20.8658ZM5 21.75H23V20.25H5V21.75ZM23.7379 21.1342L25.7379 10.1342L24.2621 9.86584L22.2621 20.8658L23.7379 21.1342ZM3 9.25H1V10.75H3V9.25ZM1.75 10V6H0.25V10H1.75ZM26.25 6V10H27.75V6H26.25ZM27 9.25H25V10.75H27V9.25ZM25 9.25H3V10.75H25V9.25ZM1 6.75H6V5.25H1V6.75ZM6.53033 6.53033L11.5303 1.53033L10.4697 0.46967L5.46967 5.46967L6.53033 6.53033ZM6 6.75H22V5.25H6V6.75ZM22 6.75H27V5.25H22V6.75ZM22.5303 5.46967L17.5303 0.46967L16.4697 1.53033L21.4697 6.53033L22.5303 5.46967Z"/>
</symbol><symbol id="icon_cart_backet" viewBox="0 0 18 15">
<path d="M11.3269 12.05C11.3269 12.4642 11.6627 12.8 12.0769 12.8C12.4911 12.8 12.8269 12.4642 12.8269 12.05H11.3269ZM12.8269 8.8C12.8269 8.38579 12.4911 8.05 12.0769 8.05C11.6627 8.05 11.3269 8.38579 11.3269 8.8H12.8269ZM8.25 12.05C8.25 12.4642 8.58579 12.8 9 12.8C9.41421 12.8 9.75 12.4642 9.75 12.05H8.25ZM9.75 8.8C9.75 8.38579 9.41421 8.05 9 8.05C8.58579 8.05 8.25 8.38579 8.25 8.8H9.75ZM5.17308 12.05C5.17308 12.4642 5.50886 12.8 5.92308 12.8C6.33729 12.8 6.67308 12.4642 6.67308 12.05H5.17308ZM6.67308 8.8C6.67308 8.38579 6.33729 8.05 5.92308 8.05C5.50886 8.05 5.17308 8.38579 5.17308 8.8H6.67308ZM3.46154 14L2.72241 14.1272C2.78435 14.4871 3.09642 14.75 3.46154 14.75V14ZM14.5385 14V14.75C14.9036 14.75 15.2157 14.4871 15.2776 14.1272L14.5385 14ZM1 6.85H0.25C0.25 7.26421 0.585786 7.6 1 7.6L1 6.85ZM1 4.25V3.5C0.585786 3.5 0.25 3.83579 0.25 4.25H1ZM17 4.25H17.75C17.75 3.83579 17.4142 3.5 17 3.5V4.25ZM17 6.85V7.6C17.4142 7.6 17.75 7.26421 17.75 6.85H17ZM7.69848 1.51563C7.98325 1.21484 7.97027 0.740141 7.66948 0.455366C7.36868 0.170592 6.89399 0.183577 6.60921 0.48437L7.69848 1.51563ZM11.3908 0.48437C11.106 0.183577 10.6313 0.170592 10.3305 0.455366C10.0297 0.740141 10.0167 1.21484 10.3015 1.51563L11.3908 0.48437ZM12.8269 12.05V8.8H11.3269V12.05H12.8269ZM9.75 12.05V8.8H8.25V12.05H9.75ZM6.67308 12.05V8.8H5.17308V12.05H6.67308ZM4.20067 13.8728L2.9699 6.72277L1.49164 6.97723L2.72241 14.1272L4.20067 13.8728ZM3.46154 14.75H14.5385V13.25H3.46154V14.75ZM15.2776 14.1272L16.5084 6.97723L15.0301 6.72277L13.7993 13.8728L15.2776 14.1272ZM2.23077 6.1H1V7.6H2.23077V6.1ZM1.75 6.85V4.25H0.25V6.85H1.75ZM16.25 4.25V6.85H17.75V4.25H16.25ZM17 6.1H15.7692V7.6H17V6.1ZM15.7692 6.1H2.23077V7.6H15.7692V6.1ZM1 5H4.07692V3.5H1V5ZM4.62156 4.76563L7.69848 1.51563L6.60921 0.48437L3.53229 3.73437L4.62156 4.76563ZM4.07692 5H13.9231V3.5H4.07692V5ZM13.9231 5H17V3.5H13.9231V5ZM14.4677 3.73437L11.3908 0.48437L10.3015 1.51563L13.3784 4.76563L14.4677 3.73437Z"/>
</symbol><symbol id="icon_cart_big" viewBox="0 0 93 93">
<path fill-rule="evenodd" clip-rule="evenodd" d="M46.5 91.5C71.3528 91.5 91.5 71.3528 91.5 46.5C91.5 21.6472 71.3528 1.5 46.5 1.5C21.6472 1.5 1.5 21.6472 1.5 46.5C1.5 71.3528 21.6472 91.5 46.5 91.5ZM46.5 93C72.1812 93 93 72.1812 93 46.5C93 20.8188 72.1812 0 46.5 0C20.8188 0 0 20.8188 0 46.5C0 72.1812 20.8188 93 46.5 93Z"/>
<path fill-rule="evenodd" clip-rule="evenodd" d="M42.6286 29.2913C43.02 29.6809 43.0214 30.3141 42.6318 30.7055L35.868 37.5H58.132L51.3682 30.7055C50.9786 30.3141 50.98 29.6809 51.3714 29.2913C51.7628 28.9017 52.396 28.9031 52.7856 29.2945L60.954 37.5H69C69.5523 37.5 70 37.9477 70 38.5V45.3C70 45.8523 69.5523 46.3 69 46.3H66.4506L63.2148 64.1781C63.1287 64.654 62.7144 65 62.2308 65H31.7692C31.2856 65 30.8713 64.654 30.7852 64.1781L27.5494 46.3H25C24.4477 46.3 24 45.8523 24 45.3V38.5C24 37.9477 24.4477 37.5 25 37.5H33.046L41.2144 29.2945C41.604 28.9031 42.2372 28.9017 42.6286 29.2913ZM29.5819 46.3L32.6045 63H61.3955L64.4181 46.3H29.5819ZM26 39.5V44.3H68V39.5H26ZM38.5385 49.4C39.0907 49.4 39.5385 49.8477 39.5385 50.4V58.9C39.5385 59.4523 39.0907 59.9 38.5385 59.9C37.9862 59.9 37.5385 59.4523 37.5385 58.9V50.4C37.5385 49.8477 37.9862 49.4 38.5385 49.4ZM47 49.4C47.5523 49.4 48 49.8477 48 50.4V58.9C48 59.4523 47.5523 59.9 47 59.9C46.4477 59.9 46 59.4523 46 58.9V50.4C46 49.8477 46.4477 49.4 47 49.4ZM55.4615 49.4C56.0138 49.4 56.4615 49.8477 56.4615 50.4V58.9C56.4615 59.4523 56.0138 59.9 55.4615 59.9C54.9093 59.9 54.4615 59.4523 54.4615 58.9V50.4C54.4615 49.8477 54.9093 49.4 55.4615 49.4Z"/>
</symbol><symbol id="icon_clear_cart_backet" viewBox="0 0 14 16">
<path d="M1 3.3C0.723858 3.3 0.5 3.52386 0.5 3.8C0.5 4.07614 0.723858 4.3 1 4.3V3.3ZM13 4.3C13.2761 4.3 13.5 4.07614 13.5 3.8C13.5 3.52386 13.2761 3.3 13 3.3V4.3ZM11.6667 3.8H12.1667C12.1667 3.52386 11.9428 3.3 11.6667 3.3V3.8ZM2.33333 13.6H1.83333H2.33333ZM3.83333 3.8C3.83333 4.07614 4.05719 4.3 4.33333 4.3C4.60948 4.3 4.83333 4.07614 4.83333 3.8H3.83333ZM5.66667 1V0.5V1ZM8.33333 1V0.5V1ZM9.16667 3.8C9.16667 4.07614 9.39052 4.3 9.66667 4.3C9.94281 4.3 10.1667 4.07614 10.1667 3.8H9.16667ZM6.16667 7.3C6.16667 7.02386 5.94281 6.8 5.66667 6.8C5.39052 6.8 5.16667 7.02386 5.16667 7.3H6.16667ZM5.16667 11.5C5.16667 11.7761 5.39052 12 5.66667 12C5.94281 12 6.16667 11.7761 6.16667 11.5H5.16667ZM8.83333 7.3C8.83333 7.02386 8.60948 6.8 8.33333 6.8C8.05719 6.8 7.83333 7.02386 7.83333 7.3H8.83333ZM7.83333 11.5C7.83333 11.7761 8.05719 12 8.33333 12C8.60948 12 8.83333 11.7761 8.83333 11.5H7.83333ZM1 4.3H2.33333V3.3H1V4.3ZM2.33333 4.3H13V3.3H2.33333V4.3ZM11.1667 3.8V13.6H12.1667V3.8H11.1667ZM11.1667 13.6C11.1667 13.8464 11.0732 14.078 10.9141 14.2451L11.6382 14.9348C11.9791 14.5768 12.1667 14.0963 12.1667 13.6H11.1667ZM10.9141 14.2451C10.7557 14.4114 10.5463 14.5 10.3333 14.5V15.5C10.8277 15.5 11.2965 15.2936 11.6382 14.9348L10.9141 14.2451ZM10.3333 14.5H3.66667V15.5H10.3333V14.5ZM3.66667 14.5C3.45374 14.5 3.2443 14.4114 3.08593 14.2451L2.36179 14.9348C2.70351 15.2936 3.17235 15.5 3.66667 15.5V14.5ZM3.08593 14.2451C2.92676 14.078 2.83333 13.8464 2.83333 13.6H1.83333C1.83333 14.0963 2.02085 14.5768 2.36179 14.9348L3.08593 14.2451ZM2.83333 13.6V3.8H1.83333V13.6H2.83333ZM2.33333 4.3H11.6667V3.3H2.33333V4.3ZM4.83333 3.8V2.4H3.83333V3.8H4.83333ZM4.83333 2.4C4.83333 2.15365 4.92676 1.922 5.08593 1.75488L4.36179 1.06522C4.02085 1.4232 3.83333 1.90375 3.83333 2.4H4.83333ZM5.08593 1.75488C5.2443 1.58859 5.45374 1.5 5.66667 1.5V0.5C5.17235 0.5 4.70351 0.706412 4.36179 1.06522L5.08593 1.75488ZM5.66667 1.5H8.33333V0.5H5.66667V1.5ZM8.33333 1.5C8.54626 1.5 8.7557 1.58859 8.91407 1.75488L9.63821 1.06522C9.29649 0.706412 8.82765 0.5 8.33333 0.5V1.5ZM8.91407 1.75488C9.07324 1.922 9.16667 2.15365 9.16667 2.4H10.1667C10.1667 1.90375 9.97915 1.4232 9.63821 1.06522L8.91407 1.75488ZM9.16667 2.4V3.8H10.1667V2.4H9.16667ZM5.16667 7.3V11.5H6.16667V7.3H5.16667ZM7.83333 7.3V11.5H8.83333V7.3H7.83333Z"/>
</symbol><symbol id="icon_compare" viewBox="0 0 26 22">
<path d="M15.25 17C15.25 17.4142 15.5858 17.75 16 17.75C16.4142 17.75 16.75 17.4142 16.75 17H15.25ZM16.75 10C16.75 9.58579 16.4142 9.25 16 9.25C15.5858 9.25 15.25 9.58579 15.25 10H16.75ZM10.25 17C10.25 17.4142 10.5858 17.75 11 17.75C11.4142 17.75 11.75 17.4142 11.75 17H10.25ZM11.75 6C11.75 5.58579 11.4142 5.25 11 5.25C10.5858 5.25 10.25 5.58579 10.25 6H11.75ZM5.25 17C5.25 17.4142 5.58579 17.75 6 17.75C6.41421 17.75 6.75 17.4142 6.75 17H5.25ZM6.75 6C6.75 5.58579 6.41421 5.25 6 5.25C5.58579 5.25 5.25 5.58579 5.25 6H6.75ZM20.25 17C20.25 17.4142 20.5858 17.75 21 17.75C21.4142 17.75 21.75 17.4142 21.75 17H20.25ZM21.75 6C21.75 5.58579 21.4142 5.25 21 5.25C20.5858 5.25 20.25 5.58579 20.25 6H21.75ZM1 21H0.25C0.25 21.4142 0.585786 21.75 1 21.75L1 21ZM1.75 1C1.75 0.585786 1.41421 0.25 1 0.25C0.585786 0.25 0.25 0.585786 0.25 1H1.75ZM25 21.75C25.4142 21.75 25.75 21.4142 25.75 21C25.75 20.5858 25.4142 20.25 25 20.25V21.75ZM16.75 17V10H15.25V17H16.75ZM11.75 17V6H10.25V17H11.75ZM6.75 17V6H5.25V17H6.75ZM21.75 17V6H20.25V17H21.75ZM1.75 21V1H0.25V21H1.75ZM1 21.75H25V20.25H1V21.75Z"/>
</symbol><symbol id="icon_dropdown_big" viewBox="0 0 12 7">
<path d="M1.53033 0.46967C1.23744 0.176777 0.762563 0.176777 0.46967 0.46967C0.176777 0.762563 0.176777 1.23744 0.46967 1.53033L1.53033 0.46967ZM6 6L5.46967 6.53033C5.76256 6.82322 6.23744 6.82322 6.53033 6.53033L6 6ZM11.5303 1.53033C11.8232 1.23744 11.8232 0.762563 11.5303 0.46967C11.2374 0.176777 10.7626 0.176777 10.4697 0.46967L11.5303 1.53033ZM0.46967 1.53033L5.46967 6.53033L6.53033 5.46967L1.53033 0.46967L0.46967 1.53033ZM6.53033 6.53033L11.5303 1.53033L10.4697 0.46967L5.46967 5.46967L6.53033 6.53033Z"/>
</symbol><symbol id="icon_dropdown_right" viewBox="0 0 7 12">
<path d="M6.53033 1.53033C6.82322 1.23744 6.82322 0.762563 6.53033 0.46967C6.23744 0.176777 5.76256 0.176777 5.46967 0.46967L6.53033 1.53033ZM1 6L0.46967 5.46967C0.176777 5.76256 0.176777 6.23744 0.46967 6.53033L1 6ZM5.46967 11.5303C5.76256 11.8232 6.23744 11.8232 6.53033 11.5303C6.82322 11.2374 6.82322 10.7626 6.53033 10.4697L5.46967 11.5303ZM5.46967 0.46967L0.46967 5.46967L1.53033 6.53033L6.53033 1.53033L5.46967 0.46967ZM0.46967 6.53033L5.46967 11.5303L6.53033 10.4697L1.53033 5.46967L0.46967 6.53033Z"/>
</symbol><symbol id="icon_favourite" viewBox="0 0 24 22">
<path d="M21.3036 2.76873L20.7623 3.28784L20.7625 3.2881L21.3036 2.76873ZM17.2095 1.00059V1.75059V1.00059ZM13.1153 2.76873L13.6565 3.28797L13.6567 3.28784L13.1153 2.76873ZM11.9997 3.93153L11.4585 4.45077C11.6 4.59819 11.7954 4.68153 11.9997 4.68153C12.204 4.68153 12.3995 4.59819 12.5409 4.45077L11.9997 3.93153ZM10.8841 2.76873L10.3429 3.28797V3.28797L10.8841 2.76873ZM2.69584 11.3033L3.23704 10.784L2.69584 11.3033ZM11.9997 21.0006L11.4585 21.5198C11.6 21.6672 11.7954 21.7506 11.9997 21.7506C12.204 21.7506 12.3995 21.6672 12.5409 21.5198L11.9997 21.0006ZM21.3036 11.3033L20.7625 10.7839L20.7624 10.784L21.3036 11.3033ZM21.8449 2.24962C21.2392 1.61801 20.5183 1.11523 19.7227 0.771591L19.1279 2.14866C19.7372 2.41179 20.2929 2.79835 20.7623 3.28784L21.8449 2.24962ZM19.7227 0.771591C18.9269 0.427921 18.0728 0.250587 17.2095 0.250587V1.75059C17.8669 1.75059 18.5187 1.88556 19.1279 2.14866L19.7227 0.771591ZM17.2095 0.250587C16.3461 0.250587 15.492 0.427921 14.6963 0.771591L15.291 2.14866C15.9002 1.88556 16.552 1.75059 17.2095 1.75059V0.250587ZM14.6963 0.771591C13.9006 1.11523 13.1797 1.61801 12.574 2.24962L13.6567 3.28784C14.1261 2.79835 14.6817 2.41179 15.291 2.14866L14.6963 0.771591ZM12.5741 2.2495L11.4585 3.4123L12.5409 4.45077L13.6565 3.28797L12.5741 2.2495ZM12.5409 3.4123L11.4253 2.2495L10.3429 3.28797L11.4585 4.45077L12.5409 3.4123ZM11.4253 2.2495C10.2014 0.97388 8.53474 0.251174 6.78997 0.251174V1.75117C8.11639 1.75117 9.3951 2.30009 10.3429 3.28797L11.4253 2.2495ZM6.78997 0.251174C5.0452 0.251174 3.37851 0.97388 2.15465 2.2495L3.23704 3.28797C4.18484 2.30009 5.46355 1.75117 6.78997 1.75117V0.251174ZM2.15465 2.2495C0.931801 3.52405 0.25 5.24634 0.25 7.036H1.75C1.75 5.62458 2.28822 4.27691 3.23704 3.28797L2.15465 2.2495ZM0.25 7.036C0.25 8.82565 0.931801 10.5479 2.15465 11.8225L3.23704 10.784C2.28822 9.79508 1.75 8.44741 1.75 7.036H0.25ZM21.8447 11.8226C22.4506 11.1914 22.9297 10.4435 23.2561 9.6226L21.8622 9.06847C21.6064 9.71192 21.2322 10.2946 20.7625 10.7839L21.8447 11.8226ZM23.2561 9.6226C23.5824 8.80171 23.75 7.92286 23.75 7.036H22.25C22.25 7.73425 22.118 8.42498 21.8622 9.06847L23.2561 9.6226ZM23.75 7.036C23.75 6.14913 23.5824 5.27028 23.2561 4.44939L21.8622 5.00352C22.118 5.64702 22.25 6.33775 22.25 7.036H23.75ZM23.2561 4.44939C22.9297 3.62846 22.4506 2.88063 21.8447 2.24937L20.7625 3.2881C21.2322 3.77742 21.6064 4.36007 21.8622 5.00352L23.2561 4.44939ZM2.15465 11.8225L11.4585 21.5198L12.5409 20.4814L3.23704 10.784L2.15465 11.8225ZM12.5409 21.5198L21.8448 11.8225L20.7624 10.784L11.4585 20.4814L12.5409 21.5198Z"/>
</symbol><symbol id="icon_favourite_backet" viewBox="0 0 18 16">
<path d="M15.7662 2.2377L15.2349 2.76706L15.2352 2.76731L15.7662 2.2377ZM12.7887 1V1.75V1ZM9.81116 2.2377L10.3423 2.76718L10.3425 2.76706L9.81116 2.2377ZM8.9998 3.05166L8.46862 3.58114C8.60934 3.72232 8.80047 3.80166 8.9998 3.80166C9.19912 3.80166 9.39025 3.72232 9.53097 3.58114L8.9998 3.05166ZM8.18843 2.2377L7.65726 2.76718V2.76718L8.18843 2.2377ZM2.23334 8.21187L2.76452 7.68239V7.68239L2.23334 8.21187ZM8.9998 15L8.46862 15.5295C8.60934 15.6707 8.80047 15.75 8.9998 15.75C9.19912 15.75 9.39025 15.6707 9.53097 15.5295L8.9998 15ZM15.7662 8.21187L15.2352 7.68226L15.2351 7.68239L15.7662 8.21187ZM16.2976 1.70834C15.8371 1.24616 15.2902 0.8794 14.6881 0.629125L14.1123 2.01423C14.532 2.18869 14.9135 2.44446 15.2349 2.76706L16.2976 1.70834ZM14.6881 0.629125C14.086 0.378849 13.4406 0.25 12.7887 0.25V1.75C13.2429 1.75 13.6926 1.83976 14.1123 2.01423L14.6881 0.629125ZM12.7887 0.25C12.1368 0.25 11.4914 0.378849 10.8893 0.629125L11.4651 2.01423C11.8848 1.83976 12.3345 1.75 12.7887 1.75V0.25ZM10.8893 0.629125C10.2872 0.8794 9.74035 1.24616 9.27986 1.70834L10.3425 2.76706C10.6639 2.44447 11.0454 2.18869 11.4651 2.01423L10.8893 0.629125ZM9.27998 1.70822L8.46862 2.52218L9.53097 3.58114L10.3423 2.76718L9.27998 1.70822ZM9.53097 2.52218L8.71961 1.70822L7.65726 2.76718L8.46862 3.58114L9.53097 2.52218ZM8.71961 1.70822C7.78945 0.77508 6.52737 0.250411 5.21089 0.250411V1.75041C6.128 1.75041 7.00803 2.11588 7.65726 2.76718L8.71961 1.70822ZM5.21089 0.250411C3.8944 0.250411 2.63232 0.77508 1.70216 1.70822L2.76452 2.76718C3.41375 2.11588 4.29378 1.75041 5.21089 1.75041V0.250411ZM1.70216 1.70822C0.772083 2.64128 0.25 3.90627 0.25 5.22479H1.75C1.75 4.30255 2.11521 3.41857 2.76452 2.76718L1.70216 1.70822ZM0.25 5.22479C0.25 6.5433 0.772082 7.80829 1.70216 8.74135L2.76452 7.68239C2.11521 7.031 1.75 6.14702 1.75 5.22479H0.25ZM16.2973 8.74148C16.758 8.27952 17.1233 7.73115 17.3726 7.12777L15.9862 6.55515C15.812 6.97684 15.5568 7.35982 15.2352 7.68226L16.2973 8.74148ZM17.3726 7.12777C17.6218 6.5244 17.75 5.87776 17.75 5.22479H16.25C16.25 5.68139 16.1603 6.13346 15.9862 6.55515L17.3726 7.12777ZM17.75 5.22479C17.75 4.57181 17.6218 3.92517 17.3726 3.3218L15.9862 3.89442C16.1603 4.31611 16.25 4.76818 16.25 5.22479H17.75ZM17.3726 3.3218C17.1233 2.71842 16.758 2.17006 16.2973 1.7081L15.2352 2.76731C15.5568 3.08975 15.812 3.47273 15.9862 3.89442L17.3726 3.3218ZM1.70216 8.74135L8.46862 15.5295L9.53097 14.4705L2.76452 7.68239L1.70216 8.74135ZM9.53097 15.5295L16.2974 8.74135L15.2351 7.68239L8.46862 14.4705L9.53097 15.5295Z"/>
</symbol><symbol id="icon_location" viewBox="0 0 18 22">
<path d="M17 9.18182H17.75H17ZM9 21L8.5775 21.6197C8.83236 21.7934 9.16764 21.7934 9.4225 21.6197L9 21ZM1 9.18182H0.25H1ZM9 1V1.75V1ZM16.25 9.18182C16.25 12.0685 14.4187 14.8421 12.4498 16.9676C11.4797 18.0149 10.5071 18.8716 9.77639 19.4667C9.4116 19.7638 9.10854 19.9945 8.89815 20.1499C8.79299 20.2276 8.71109 20.2864 8.65633 20.3252C8.62895 20.3446 8.60837 20.3589 8.59507 20.3682C8.58842 20.3728 8.58359 20.3761 8.58064 20.3782C8.57916 20.3792 8.57816 20.3799 8.57763 20.3802C8.57737 20.3804 8.57723 20.3805 8.5772 20.3805C8.57719 20.3805 8.57727 20.3805 8.57726 20.3805C8.57736 20.3804 8.5775 20.3803 9 21C9.4225 21.6197 9.4227 21.6195 9.42292 21.6194C9.42304 21.6193 9.4233 21.6191 9.42353 21.619C9.42399 21.6187 9.42458 21.6183 9.42528 21.6178C9.42669 21.6168 9.42859 21.6155 9.43096 21.6139C9.4357 21.6106 9.44235 21.606 9.45083 21.6001C9.4678 21.5883 9.49214 21.5713 9.52336 21.5492C9.58578 21.505 9.67576 21.4404 9.78935 21.3565C10.0165 21.1887 10.3384 20.9436 10.7236 20.6298C11.4929 20.0034 12.5203 19.0987 13.5502 17.9869C15.5813 15.7943 17.75 12.6588 17.75 9.18182H16.25ZM9 21C9.4225 20.3803 9.42264 20.3804 9.42274 20.3805C9.42273 20.3805 9.42281 20.3805 9.4228 20.3805C9.42277 20.3805 9.42263 20.3804 9.42237 20.3802C9.42184 20.3799 9.42084 20.3792 9.41936 20.3782C9.41641 20.3761 9.41158 20.3728 9.40493 20.3682C9.39163 20.3589 9.37105 20.3446 9.34367 20.3252C9.28891 20.2864 9.20701 20.2276 9.10185 20.1499C8.89146 19.9945 8.5884 19.7638 8.22361 19.4667C7.49287 18.8716 6.52033 18.0149 5.55021 16.9676C3.5813 14.8421 1.75 12.0685 1.75 9.18182H0.25C0.25 12.6588 2.4187 15.7943 4.44979 17.9869C5.47967 19.0987 6.50713 20.0034 7.27639 20.6298C7.6616 20.9436 7.98354 21.1887 8.21065 21.3565C8.32424 21.4404 8.41422 21.505 8.47664 21.5492C8.50786 21.5713 8.5322 21.5883 8.54917 21.6001C8.55765 21.606 8.5643 21.6106 8.56904 21.6139C8.57141 21.6155 8.57331 21.6168 8.57472 21.6178C8.57542 21.6183 8.57601 21.6187 8.57647 21.619C8.5767 21.6191 8.57696 21.6193 8.57708 21.6194C8.5773 21.6195 8.5775 21.6197 9 21ZM1.75 9.18182C1.75 7.20541 2.51784 5.31324 3.8794 3.92074L2.80689 2.87206C1.16787 4.54833 0.25 6.81832 0.25 9.18182H1.75ZM3.8794 3.92074C5.2404 2.5288 7.08269 1.75 9 1.75V0.25C6.67385 0.25 4.44647 1.19522 2.80689 2.87206L3.8794 3.92074ZM9 1.75C10.9173 1.75 12.7596 2.5288 14.1206 3.92074L15.1931 2.87206C13.5535 1.19522 11.3262 0.25 9 0.25V1.75ZM14.1206 3.92074C15.4822 5.31325 16.25 7.20541 16.25 9.18182H17.75C17.75 6.81832 16.8321 4.54833 15.1931 2.87206L14.1206 3.92074ZM10.9167 9.18182C10.9167 10.2898 10.0427 11.1591 9 11.1591V12.6591C10.9028 12.6591 12.4167 11.0863 12.4167 9.18182H10.9167ZM9 11.1591C7.95725 11.1591 7.08333 10.2898 7.08333 9.18182H5.58333C5.58333 11.0863 7.09723 12.6591 9 12.6591V11.1591ZM7.08333 9.18182C7.08333 8.07382 7.95725 7.20455 9 7.20455V5.70455C7.09723 5.70455 5.58333 7.27735 5.58333 9.18182H7.08333ZM9 7.20455C10.0427 7.20455 10.9167 8.07382 10.9167 9.18182H12.4167C12.4167 7.27735 10.9028 5.70455 9 5.70455V7.20455Z"/>
</symbol><symbol id="icon_login" viewBox="0 0 22 22">
<path d="M14.3333 0.25C13.9191 0.25 13.5833 0.585786 13.5833 1C13.5833 1.41421 13.9191 1.75 14.3333 1.75V0.25ZM18.7778 1V0.25V1ZM14.3333 20.25C13.9191 20.25 13.5833 20.5858 13.5833 21C13.5833 21.4142 13.9191 21.75 14.3333 21.75V20.25ZM8.24745 16.0252C7.95456 16.3181 7.95456 16.793 8.24745 17.0859C8.54034 17.3788 9.01521 17.3788 9.30811 17.0859L8.24745 16.0252ZM14.3333 11L14.8637 11.5303C15.1566 11.2374 15.1566 10.7626 14.8637 10.4697L14.3333 11ZM9.30811 4.91411C9.01521 4.62122 8.54034 4.62122 8.24745 4.91411C7.95456 5.20701 7.95456 5.68188 8.24745 5.97477L9.30811 4.91411ZM1 10.25C0.585786 10.25 0.25 10.5858 0.25 11C0.25 11.4142 0.585786 11.75 1 11.75V10.25ZM14.3333 1.75H18.7778V0.25H14.3333V1.75ZM18.7778 1.75C19.1682 1.75 19.5427 1.90511 19.8188 2.1812L20.8795 1.12054C20.3221 0.563144 19.5661 0.25 18.7778 0.25V1.75ZM19.8188 2.1812C20.0949 2.4573 20.25 2.83177 20.25 3.22222H21.75C21.75 2.43394 21.4369 1.67794 20.8795 1.12054L19.8188 2.1812ZM20.25 3.22222V18.7778H21.75V3.22222H20.25ZM20.25 18.7778C20.25 19.1682 20.0949 19.5427 19.8188 19.8188L20.8795 20.8795C21.4369 20.3221 21.75 19.5661 21.75 18.7778H20.25ZM19.8188 19.8188C19.5427 20.0949 19.1682 20.25 18.7778 20.25V21.75C19.5661 21.75 20.3221 21.4369 20.8795 20.8795L19.8188 19.8188ZM18.7778 20.25H14.3333V21.75H18.7778V20.25ZM9.30811 17.0859L14.8637 11.5303L13.803 10.4697L8.24745 16.0252L9.30811 17.0859ZM14.8637 10.4697L9.30811 4.91411L8.24745 5.97477L13.803 11.5303L14.8637 10.4697ZM14.3333 10.25H1V11.75H14.3333V10.25Z"/>
</symbol><symbol id="icon_mail" viewBox="0 0 20 16">
<path d="M10 8.875L9.57803 9.49503C9.83266 9.66832 10.1673 9.66832 10.422 9.49503L10 8.875ZM2.8 1.75H17.2V0.25H2.8V1.75ZM17.2 1.75C17.7958 1.75 18.25 2.22149 18.25 2.75H19.75C19.75 1.35351 18.5842 0.25 17.2 0.25V1.75ZM18.25 2.75V13.25H19.75V2.75H18.25ZM18.25 13.25C18.25 13.7785 17.7958 14.25 17.2 14.25V15.75C18.5842 15.75 19.75 14.6465 19.75 13.25H18.25ZM17.2 14.25H2.8V15.75H17.2V14.25ZM2.8 14.25C2.20416 14.25 1.75 13.7785 1.75 13.25H0.25C0.25 14.6465 1.41584 15.75 2.8 15.75V14.25ZM1.75 13.25V2.75H0.25V13.25H1.75ZM1.75 2.75C1.75 2.22149 2.20416 1.75 2.8 1.75V0.25C1.41584 0.25 0.25 1.35351 0.25 2.75H1.75ZM18.578 2.12997L9.57803 8.25497L10.422 9.49503L19.422 3.37003L18.578 2.12997ZM10.422 8.25497L1.42197 2.12997L0.578032 3.37003L9.57803 9.49503L10.422 8.25497Z"/>
</symbol><symbol id="icon_menu" viewBox="0 0 26 18">
<path d="M1 8.25C0.585786 8.25 0.25 8.58579 0.25 9C0.25 9.41421 0.585786 9.75 1 9.75V8.25ZM25 9.75C25.4142 9.75 25.75 9.41421 25.75 9C25.75 8.58579 25.4142 8.25 25 8.25V9.75ZM1 0.25C0.585786 0.25 0.25 0.585786 0.25 1C0.25 1.41421 0.585786 1.75 1 1.75V0.25ZM15.4 1.75C15.8142 1.75 16.15 1.41421 16.15 1C16.15 0.585786 15.8142 0.25 15.4 0.25V1.75ZM1 16.25C0.585786 16.25 0.25 16.5858 0.25 17C0.25 17.4142 0.585786 17.75 1 17.75V16.25ZM25 17.75C25.4142 17.75 25.75 17.4142 25.75 17C25.75 16.5858 25.4142 16.25 25 16.25V17.75ZM1 9.75H25V8.25H1V9.75ZM1 1.75H15.4V0.25H1V1.75ZM1 17.75H25V16.25H1V17.75Z"/>
</symbol><symbol id="icon_more" viewBox="0 0 24 4">
<path d="M4 2C4 3.10457 3.10457 4 2 4C0.89543 4 0 3.10457 0 2C0 0.89543 0.89543 0 2 0C3.10457 0 4 0.89543 4 2Z"/>
<path d="M14 2C14 3.10457 13.1046 4 12 4C10.8954 4 10 3.10457 10 2C10 0.89543 10.8954 0 12 0C13.1046 0 14 0.89543 14 2Z"/>
<path d="M24 2C24 3.10457 23.1046 4 22 4C20.8954 4 20 3.10457 20 2C20 0.89543 20.8954 0 22 0C23.1046 0 24 0.89543 24 2Z"/>
</symbol><symbol id="icon_phone" viewBox="0 0 20 20">
<path d="M18.9994 14.4765L18.2497 14.4578C18.2495 14.464 18.2494 14.4702 18.2494 14.4765H18.9994ZM18.9994 17.1862H18.2494L18.2494 17.1892L18.9994 17.1862ZM17.0265 18.9927L16.9456 19.7384L16.9591 19.7396L17.0265 18.9927ZM9.21601 16.2197L9.62354 15.5901L9.61769 15.5863L9.21601 16.2197ZM3.7858 10.8003L4.41848 10.3974L4.41489 10.3919L3.7858 10.8003ZM1.00735 2.96915L0.26031 3.0368L0.261556 3.04851L1.00735 2.96915ZM2.80837 1.00009V0.250087L2.80766 0.250088L2.80837 1.00009ZM5.52347 1.00009V1.75012L5.53084 1.75005L5.52347 1.00009ZM7.33354 2.55366L8.07711 2.4554L8.07613 2.4485L7.33354 2.55366ZM7.96707 5.09177L7.26456 5.35443L7.2652 5.35613L7.96707 5.09177ZM7.5598 6.99761L8.08961 7.52848L8.09257 7.5255L7.5598 6.99761ZM6.41041 8.14473L5.8806 7.61388C5.64127 7.85274 5.59136 8.22221 5.75875 8.51601L6.41041 8.14473ZM11.8406 13.5642L11.4704 14.2165C11.7636 14.3829 12.1318 14.3332 12.3704 14.095L11.8406 13.5642ZM12.99 12.4171L12.4632 11.8832L12.4602 11.8862L12.99 12.4171ZM14.8996 12.0106L14.6362 12.7128L14.6379 12.7134L14.8996 12.0106ZM17.4428 12.6429L17.5474 11.9002L17.5407 11.8993L17.4428 12.6429ZM18.2494 14.4765V17.1862H19.7494V14.4765H18.2494ZM18.2494 17.1892C18.25 17.3361 18.2199 17.4816 18.1609 17.6163L19.5348 18.2182C19.6778 17.8919 19.7509 17.5393 19.7494 17.1831L18.2494 17.1892ZM18.1609 17.6163C18.1019 17.7509 18.0153 17.872 17.9066 17.9715L18.9195 19.0778C19.1823 18.8372 19.3919 18.5445 19.5348 18.2182L18.1609 17.6163ZM17.9066 17.9715C17.7978 18.0711 17.6694 18.1469 17.5294 18.1942L18.0091 19.6154C18.3467 19.5015 18.6568 19.3184 18.9195 19.0778L17.9066 17.9715ZM17.5294 18.1942C17.3894 18.2414 17.2411 18.259 17.0938 18.2457L16.9591 19.7396C17.3139 19.7716 17.6716 19.7293 18.0091 19.6154L17.5294 18.1942ZM17.1073 18.247C14.4388 17.9577 11.8755 17.0476 9.62352 15.5901L8.80851 16.8493C11.2573 18.4342 14.0443 19.4237 16.9456 19.7383L17.1073 18.247ZM9.61769 15.5863C7.52387 14.2585 5.7488 12.4869 4.41845 10.3975L3.15315 11.2031C4.60187 13.4784 6.53472 15.4074 8.81434 16.8531L9.61769 15.5863ZM4.41489 10.3919C2.94956 8.13444 2.03772 5.56433 1.75314 2.8898L0.261556 3.04851C0.571117 5.95781 1.56299 8.75333 3.15671 11.2086L4.41489 10.3919ZM1.75429 2.90152C1.74108 2.75566 1.75845 2.60863 1.80531 2.46978L0.384057 1.99015C0.270498 2.32664 0.228376 2.6831 0.260402 3.03679L1.75429 2.90152ZM1.80531 2.46978C1.85217 2.33093 1.92752 2.20323 2.02665 2.09485L0.919808 1.08247C0.6801 1.34454 0.497616 1.65365 0.384057 1.99015L1.80531 2.46978ZM2.02665 2.09485C2.12578 1.98646 2.24653 1.89978 2.38125 1.84039L1.77619 0.467834C1.45118 0.611109 1.15951 0.820401 0.919808 1.08247L2.02665 2.09485ZM2.38125 1.84039C2.51598 1.78099 2.66168 1.75023 2.80907 1.75009L2.80766 0.250088C2.45247 0.250422 2.10119 0.324562 1.77619 0.467834L2.38125 1.84039ZM2.80837 1.75009H5.52347V0.250088H2.80837V1.75009ZM5.53084 1.75005C5.78849 1.74752 6.03806 1.83859 6.23305 2.00595L7.20999 0.867717C6.73893 0.463405 6.13689 0.244026 5.5161 0.250124L5.53084 1.75005ZM6.23305 2.00595C6.428 2.17328 6.55506 2.40538 6.59095 2.65883L8.07613 2.4485C7.98908 1.83384 7.68109 1.27206 7.20999 0.867717L6.23305 2.00595ZM6.59 2.65192C6.71203 3.57528 6.93832 4.48188 7.26456 5.35443L8.66957 4.82911C8.38301 4.06269 8.18425 3.26639 8.07708 2.4554L6.59 2.65192ZM7.2652 5.35613C7.33634 5.545 7.35172 5.7502 7.30956 5.94747L8.77644 6.26093C8.87865 5.78264 8.84133 5.28513 8.66893 4.82742L7.2652 5.35613ZM7.30956 5.94747C7.26741 6.14474 7.16943 6.32602 7.02703 6.46973L8.09257 7.5255C8.43683 7.17805 8.67424 6.73922 8.77644 6.26093L7.30956 5.94747ZM7.03 6.46676L5.8806 7.61388L6.94021 8.67559L8.0896 7.52847L7.03 6.46676ZM5.75875 8.51601C7.11402 10.8947 9.08737 12.8641 11.4704 14.2165L12.2108 12.9119C10.0623 11.6926 8.28353 9.91734 7.06206 7.77345L5.75875 8.51601ZM12.3704 14.095L13.5198 12.9479L12.4602 11.8862L11.3108 13.0333L12.3704 14.095ZM13.5168 12.9509C13.6609 12.8087 13.8429 12.7106 14.0413 12.6684L13.7291 11.2013C13.2506 11.3031 12.8113 11.5397 12.4632 11.8833L13.5168 12.9509ZM14.0413 12.6684C14.2398 12.6261 14.4463 12.6416 14.6362 12.7128L15.1631 11.3084C14.7051 11.1366 14.2075 11.0994 13.7291 11.2013L14.0413 12.6684ZM14.6379 12.7134C15.5119 13.039 16.42 13.2647 17.3449 13.3865L17.5407 11.8993C16.7277 11.7923 15.9296 11.5938 15.1614 11.3078L14.6379 12.7134ZM17.3382 13.3856C17.5961 13.4219 17.8313 13.5514 17.9992 13.7492L19.1427 12.7785C18.7366 12.3001 18.1687 11.9877 17.5473 11.9002L17.3382 13.3856ZM17.9992 13.7492C18.1671 13.947 18.2561 14.1992 18.2497 14.4578L19.7492 14.4951C19.7648 13.8678 19.5488 13.2568 19.1427 12.7785L17.9992 13.7492Z"/>
</symbol><symbol id="icon_pin" viewBox="0 0 20 24">
<path d="M19 10H19.75H19ZM10 23L9.58397 23.624C9.8359 23.792 10.1641 23.792 10.416 23.624L10 23ZM1 10H0.25H1ZM10 1V1.75V1ZM18.25 10C18.25 13.1985 16.1757 16.2657 13.9555 18.6092C12.8608 19.7648 11.7635 20.7099 10.9391 21.3664C10.5274 21.6942 10.1853 21.9488 9.9476 22.1205C9.82877 22.2063 9.73613 22.2713 9.67405 22.3143C9.64301 22.3358 9.61962 22.3518 9.60442 22.3622C9.59682 22.3673 9.59127 22.3711 9.58784 22.3734C9.58613 22.3745 9.58494 22.3753 9.58429 22.3757C9.58397 22.376 9.58378 22.3761 9.58373 22.3761C9.5837 22.3761 9.58376 22.3761 9.58375 22.3761C9.58385 22.376 9.58397 22.376 10 23C10.416 23.624 10.4162 23.6239 10.4165 23.6238C10.4166 23.6237 10.4168 23.6235 10.4171 23.6233C10.4176 23.623 10.4182 23.6226 10.419 23.6221C10.4205 23.621 10.4226 23.6196 10.4252 23.6179C10.4304 23.6144 10.4378 23.6094 10.4472 23.603C10.4661 23.5902 10.4932 23.5716 10.5281 23.5475C10.5979 23.4992 10.6986 23.4284 10.8258 23.3365C11.0803 23.1528 11.4413 22.8839 11.8734 22.5398C12.7365 21.8526 13.8892 20.8602 15.0445 19.6408C17.3243 17.2343 19.75 13.8015 19.75 10H18.25ZM10 23C10.416 22.376 10.4162 22.376 10.4163 22.3761C10.4162 22.3761 10.4163 22.3761 10.4163 22.3761C10.4162 22.3761 10.416 22.376 10.4157 22.3757C10.4151 22.3753 10.4139 22.3745 10.4122 22.3734C10.4087 22.3711 10.4032 22.3673 10.3956 22.3622C10.3804 22.3518 10.357 22.3358 10.326 22.3143C10.2639 22.2713 10.1712 22.2063 10.0524 22.1205C9.81467 21.9488 9.47257 21.6942 9.06095 21.3664C8.2365 20.7099 7.13921 19.7648 6.04446 18.6092C3.8243 16.2657 1.75 13.1985 1.75 10H0.25C0.25 13.8015 2.6757 17.2343 4.95554 19.6408C6.11079 20.8602 7.2635 21.8526 8.12655 22.5398C8.55868 22.8839 8.91971 23.1528 9.17416 23.3365C9.30143 23.4284 9.40215 23.4992 9.4719 23.5475C9.50678 23.5716 9.53392 23.5902 9.55278 23.603C9.56221 23.6094 9.56958 23.6144 9.5748 23.6179C9.57741 23.6196 9.57948 23.621 9.58102 23.6221C9.58178 23.6226 9.58241 23.623 9.58291 23.6233C9.58315 23.6235 9.58342 23.6237 9.58354 23.6238C9.58378 23.6239 9.58397 23.624 10 23ZM1.75 10C1.75 7.81196 2.61919 5.71354 4.16637 4.16637L3.10571 3.10571C1.27723 4.93419 0.25 7.41414 0.25 10H1.75ZM4.16637 4.16637C5.71354 2.61919 7.81196 1.75 10 1.75V0.25C7.41414 0.25 4.93419 1.27723 3.10571 3.10571L4.16637 4.16637ZM10 1.75C12.188 1.75 14.2865 2.61919 15.8336 4.16637L16.8943 3.10571C15.0658 1.27723 12.5859 0.25 10 0.25V1.75ZM15.8336 4.16637C17.3808 5.71354 18.25 7.81196 18.25 10H19.75C19.75 7.41414 18.7228 4.93419 16.8943 3.10571L15.8336 4.16637ZM12.25 10C12.25 11.2426 11.2426 12.25 10 12.25V13.75C12.0711 13.75 13.75 12.0711 13.75 10H12.25ZM10 12.25C8.75736 12.25 7.75 11.2426 7.75 10H6.25C6.25 12.0711 7.92893 13.75 10 13.75V12.25ZM7.75 10C7.75 8.75736 8.75736 7.75 10 7.75V6.25C7.92893 6.25 6.25 7.92893 6.25 10H7.75ZM10 7.75C11.2426 7.75 12.25 8.75736 12.25 10H13.75C13.75 7.92893 12.0711 6.25 10 6.25V7.75Z"/>
</symbol><symbol id="icon_search" viewBox="0 0 18 18">
<path d="M16.4697 17.5303C16.7626 17.8232 17.2374 17.8232 17.5303 17.5303C17.8232 17.2374 17.8232 16.7626 17.5303 16.4697L16.4697 17.5303ZM12.8105 11.7499C12.5176 11.457 12.0428 11.457 11.7499 11.7499C11.457 12.0428 11.457 12.5176 11.7499 12.8105L12.8105 11.7499ZM13.4722 7.61111C13.4722 10.8481 10.8481 13.4722 7.61111 13.4722V14.9722C11.6765 14.9722 14.9722 11.6765 14.9722 7.61111H13.4722ZM7.61111 13.4722C4.37411 13.4722 1.75 10.8481 1.75 7.61111H0.25C0.25 11.6765 3.54568 14.9722 7.61111 14.9722V13.4722ZM1.75 7.61111C1.75 4.37411 4.37411 1.75 7.61111 1.75V0.25C3.54568 0.25 0.25 3.54568 0.25 7.61111H1.75ZM7.61111 1.75C10.8481 1.75 13.4722 4.37411 13.4722 7.61111H14.9722C14.9722 3.54568 11.6765 0.25 7.61111 0.25V1.75ZM17.5303 16.4697L12.8105 11.7499L11.7499 12.8105L16.4697 17.5303L17.5303 16.4697Z"/>
</symbol><symbol id="icon_time" viewBox="0 0 20 20">
<path d="M10.75 4.6C10.75 4.18579 10.4142 3.85 10 3.85C9.58579 3.85 9.25 4.18579 9.25 4.6H10.75ZM10 10H9.25C9.25 10.2841 9.4105 10.5438 9.66459 10.6708L10 10ZM13.2646 12.4708C13.6351 12.6561 14.0856 12.5059 14.2708 12.1354C14.4561 11.7649 14.3059 11.3144 13.9354 11.1292L13.2646 12.4708ZM18.25 10C18.25 14.5563 14.5563 18.25 10 18.25V19.75C15.3848 19.75 19.75 15.3848 19.75 10H18.25ZM10 18.25C5.44365 18.25 1.75 14.5563 1.75 10H0.25C0.25 15.3848 4.61522 19.75 10 19.75V18.25ZM1.75 10C1.75 5.44365 5.44365 1.75 10 1.75V0.25C4.61522 0.25 0.25 4.61522 0.25 10H1.75ZM10 1.75C14.5563 1.75 18.25 5.44365 18.25 10H19.75C19.75 4.61522 15.3848 0.25 10 0.25V1.75ZM9.25 4.6V10H10.75V4.6H9.25ZM9.66459 10.6708L13.2646 12.4708L13.9354 11.1292L10.3354 9.32918L9.66459 10.6708Z"/>
</symbol><symbol id="loader-btn" viewBox="0 0 24 30">
    <rect x="0" y="13" width="4" height="5">
      <animate attributeName="height" attributeType="XML" values="5;21;5" begin="0s" dur="0.6s" repeatCount="indefinite"/>
      <animate attributeName="y" attributeType="XML" values="13; 5; 13" begin="0s" dur="0.6s" repeatCount="indefinite"/>
    </rect>
    <rect x="10" y="13" width="4" height="5">
      <animate attributeName="height" attributeType="XML" values="5;21;5" begin="0.15s" dur="0.6s" repeatCount="indefinite"/>
      <animate attributeName="y" attributeType="XML" values="13; 5; 13" begin="0.15s" dur="0.6s" repeatCount="indefinite"/>
    </rect>
    <rect x="20" y="13" width="4" height="5">
      <animate attributeName="height" attributeType="XML" values="5;21;5" begin="0.3s" dur="0.6s" repeatCount="indefinite"/>
      <animate attributeName="y" attributeType="XML" values="13; 5; 13" begin="0.3s" dur="0.6s" repeatCount="indefinite"/>
    </rect>
  </symbol><symbol id="moscow-metro-logo" viewBox="0 0 95.44 95.441">
<g>
	<g>
		<path d="M47.721,11.712C21.366,11.712,0,33.281,0,59.888c0,14.427,6.226,23.836,6.226,23.836l82.97,0.004
			c0,0,6.244-10.283,6.244-23.841C95.44,33.281,74.074,11.712,47.721,11.712z M85.696,77.859L9.897,77.826
			c0,0-4.039-7.649-4.039-18.09c0-23.32,18.814-42.226,42.023-42.226c23.208,0,42.023,18.905,42.023,42.226
			C89.905,70.295,85.696,77.859,85.696,77.859z"/>
		<polygon points="61.207,24.505 60.608,24.504 47.879,49.447 34.692,24.291 16.637,69.736 11.971,69.736 11.971,73.386 
			37.533,73.386 37.533,69.736 32.461,69.736 37.533,55.533 47.879,73.386 57.82,55.533 62.891,69.736 57.82,69.736 57.82,73.386 
			83.178,73.386 83.178,69.736 78.785,69.736 		"/>
	</g>
</g>

</symbol><symbol id="setone" viewBox="0 0 18 18">
<path d="M16.7307 7.73078H15.834C15.6547 6.75463 15.2737 5.84969 14.732 5.06275L15.3646 4.43105C15.8598 3.9355 15.8598 3.13158 15.3646 2.63604C15.1168 2.38779 14.7911 2.26388 14.4668 2.26388C14.1423 2.26388 13.8168 2.38779 13.569 2.63604L12.9365 3.26846C12.1511 2.72576 11.245 2.3453 10.2681 2.16476V1.26878C10.2681 0.567994 9.70067 0 9.00004 0C8.29941 0 7.73193 0.567994 7.73193 1.26878V2.16476C6.75508 2.34537 5.85015 2.72576 5.06315 3.26795L4.43103 2.63684C4.18323 2.38903 3.85853 2.26454 3.53435 2.26454C3.20848 2.26454 2.8832 2.38903 2.63657 2.63684C2.13986 3.13165 2.13986 3.93558 2.63657 4.43112L3.26759 5.06282C2.72621 5.84983 2.34525 6.7547 2.16596 7.73085H1.26927C0.568638 7.73085 0 8.29892 0 8.99971C0 9.70108 0.568638 10.2691 1.26927 10.2691H2.16596C2.34525 11.2453 2.72629 12.1497 3.26876 12.937L2.63657 13.5695C2.13986 14.0649 2.13986 14.8683 2.63657 15.3637C2.88437 15.6116 3.20856 15.736 3.53435 15.736C3.85846 15.736 4.18316 15.6116 4.43103 15.3637L5.06315 14.7321C5.85015 15.2735 6.75508 15.654 7.73193 15.8345V16.7306C7.73193 17.4319 8.29941 18 9.00004 18C9.70067 18 10.2681 17.4319 10.2681 16.7306V15.8351C11.245 15.6541 12.1496 15.2735 12.9365 14.7315L13.569 15.3643C13.8168 15.6121 14.1423 15.736 14.4668 15.736C14.7911 15.736 15.1168 15.6122 15.3646 15.3643C15.8598 14.8689 15.8598 14.0649 15.3646 13.5695L14.732 12.937C15.2738 12.1496 15.6547 11.2453 15.834 10.2691H16.7307C17.4314 10.2691 18 9.70108 18 8.99971C18 8.29885 17.4314 7.73078 16.7307 7.73078ZM8.99989 11.6199C7.55242 11.6199 6.37965 10.4467 6.37965 8.99971C6.37965 7.55265 7.55242 6.37942 8.99989 6.37942C10.4474 6.37942 11.6198 7.55272 11.6198 8.99971C11.6198 10.4467 10.4474 11.6199 8.99989 11.6199Z"/>
</symbol><symbol id="settwo" viewBox="0 0 28 28">
<path d="M26.0256 12.0257H24.6307C24.3517 10.5072 23.7591 9.09951 22.9164 7.87538L23.9005 6.89275C24.6709 6.1219 24.6709 4.87135 23.9005 4.1005C23.515 3.71434 23.0083 3.5216 22.5039 3.5216C21.9991 3.5216 21.4929 3.71434 21.1074 4.1005L20.1234 5.08427C18.9017 4.24007 17.4922 3.64824 15.9727 3.36741V1.97366C15.9727 0.883546 15.0899 0 14.0001 0C12.9102 0 12.0275 0.883546 12.0275 1.97366V3.36741C10.5079 3.64835 9.10024 4.24007 7.87602 5.08348L6.89272 4.10175C6.50725 3.71627 6.00216 3.52262 5.49787 3.52262C4.99097 3.52262 4.48498 3.71627 4.10132 4.10175C3.32868 4.87146 3.32868 6.12201 4.10132 6.89286L5.08292 7.8755C4.24077 9.09974 3.64817 10.5073 3.36927 12.0258H1.97442C0.884547 12.0258 0 12.9094 0 13.9995C0 15.0906 0.884547 15.9742 1.97442 15.9742H3.36927C3.64817 17.4927 4.24089 18.8995 5.08474 20.1243L4.10132 21.108C3.32868 21.8787 3.32868 23.1285 4.10132 23.8992C4.4868 24.2846 4.99109 24.4782 5.49787 24.4782C6.00205 24.4782 6.50713 24.2846 6.89272 23.8992L7.87602 22.9166C9.10024 23.7588 10.5079 24.3507 12.0275 24.6315V26.0253C12.0275 27.1162 12.9102 28 14.0001 28C15.0899 28 15.9727 27.1162 15.9727 26.0253V24.6324C17.4922 24.3509 18.8994 23.7588 20.1234 22.9156L21.1074 23.9001C21.4929 24.2855 21.9991 24.4783 22.5039 24.4783C23.0083 24.4783 23.515 24.2857 23.9005 23.9001C24.6709 23.1294 24.6709 21.8787 23.9005 21.108L22.9164 20.1243C23.7592 18.8994 24.3517 17.4927 24.6307 15.9742H26.0256C27.1155 15.9742 28 15.0906 28 13.9995C28 12.9093 27.1155 12.0257 26.0256 12.0257ZM13.9998 18.0753C11.7482 18.0753 9.9239 16.2504 9.9239 13.9995C9.9239 11.7486 11.7482 9.92353 13.9998 9.92353C16.2514 9.92353 18.0752 11.7487 18.0752 13.9995C18.0753 16.2504 16.2516 18.0753 13.9998 18.0753Z"/>
</symbol></svg>